<?xml version="1.0" encoding="UTF-8"?>
<svg width="9px" height="14px" viewBox="0 0 9 14" version="1.1" xmlns="http://www.w3.org/2000/svg" xmlns:xlink="http://www.w3.org/1999/xlink">
    <!-- Generator: Sketch 61.1 (89650) - https://sketch.com -->
    <title>icon_sorting</title>
    <desc>Created with Sketch.</desc>
    <g id="页面-1" stroke="none" stroke-width="1" fill="none" fill-rule="evenodd">
        <g id="保单管理字段弹窗样式/字段少" transform="translate(-1198.000000, -478.000000)" fill="#BABABA">
            <g id="编组备份-8" transform="translate(1198.000000, 478.000000)">
                <path d="M3.275,7.12089844 C3.275,6.50839844 2.6625,5.89726563 2.05136719,5.89726563 C1.44023437,5.89726563 0.827734375,6.50976563 0.827734375,7.12089844 C0.827734375,7.73203125 1.44023437,8.34453125 2.05136719,8.34453125 C2.6625,8.34453125 3.275,7.73203125 3.275,7.12089844 L3.275,7.12089844 Z M8.17226562,7.12089844 C8.17226562,6.50839844 7.55976562,5.89726563 6.94863281,5.89726563 C6.33613281,5.89726563 5.725,6.50976563 5.725,7.12089844 C5.725,7.73203125 6.3375,8.34453125 6.94863281,8.34453125 C7.55976562,8.34453125 8.17226562,7.73203125 8.17226562,7.12089844 L8.17226562,7.12089844 Z M3.275,12.0167969 C3.275,11.4042969 2.6625,10.7931641 2.05136719,10.7931641 C1.44023437,10.7931641 0.827734375,11.4056641 0.827734375,12.0167969 C0.827734375,12.6292969 1.44023437,13.2404297 2.05136719,13.2404297 C2.6625,13.2404297 3.275,12.6292969 3.275,12.0167969 Z M8.17226562,2.22363281 C8.17226562,1.61113281 7.55976562,1 6.94863281,1 C6.33613281,1 5.725,1.6125 5.725,2.22363281 C5.725,2.83613281 6.3375,3.44726791 6.94863281,3.44726791 C7.55976562,3.44863281 8.17226562,2.83613281 8.17226562,2.22363281 Z M5.72363281,12.0167969 C5.72363281,12.6292969 6.33613281,13.2404297 6.94726562,13.2404297 C7.55976562,13.2404297 8.17089844,12.6279297 8.17089844,12.0167969 C8.17089844,11.4042969 7.55839844,10.7931641 6.94726562,10.7931641 C6.33613281,10.7931641 5.72363281,11.4042969 5.72363281,12.0167969 Z M3.275,2.22363281 C3.275,1.61113281 2.6625,1 2.05136719,1 C1.44023437,1 0.827734375,1.6125 0.827734375,2.22363281 C0.827734375,2.83613281 1.44023437,3.44726562 2.05136719,3.44726562 C2.6625,3.44726562 3.275,2.83613281 3.275,2.22363281 Z" id="形状"></path>
            </g>
        </g>
    </g>
</svg>